<svg xmlns="http://www.w3.org/2000/svg" xmlns:xlink="http://www.w3.org/1999/xlink" width="92" height="92" viewBox="0 0 92 92">
  <defs>
    <filter id="Ellipse_780" x="0" y="0" width="92" height="92" filterUnits="userSpaceOnUse">
      <feOffset dy="3" input="SourceAlpha"/>
      <feGaussianBlur stdDeviation="3" result="blur"/>
      <feFlood flood-opacity="0.161"/>
      <feComposite operator="in" in2="blur"/>
      <feComposite in="SourceGraphic"/>
    </filter>
  </defs>
  <g id="Automatic_milk_collection_unit" data-name="Automatic milk collection unit" transform="translate(-277 -332)">
    <g transform="matrix(1, 0, 0, 1, 277, 332)" filter="url(#Ellipse_780)">
      <circle id="Ellipse_780-2" data-name="Ellipse 780" cx="37" cy="37" r="37" transform="translate(9 6)" fill="#fff"/>
    </g>
    <g id="_x38_5" transform="translate(305.646 357.537)">
      <path id="Path_23036" data-name="Path 23036" d="M4.561,26.713H15.239v3.793a2.12,2.12,0,0,0,2.115,2.12h9.524a2.12,2.12,0,0,0,2.115-2.12V26.713h1.155a2.56,2.56,0,0,0,2.554-2.56c0-1.973,0,7.146.007-19.292A2.564,2.564,0,0,0,30.149,2.3H4.561A2.56,2.56,0,0,0,2,4.854v19.3a2.563,2.563,0,0,0,2.561,2.56ZM16.519,15.681h11.2V27.172h-11.2Zm11.2-1.28h-11.2V12.193a.836.836,0,0,1,.835-.835h9.524a.837.837,0,0,1,.836.835Zm-.836,16.944H17.354a.839.839,0,0,1-.835-.84V28.452h11.2v2.054a.839.839,0,0,1-.836.84Zm3.27-5.913H28.994c0-1.588,0-13.315,0-13.24a2.117,2.117,0,0,0-2.115-2.115H17.354a2.117,2.117,0,0,0-2.115,2.115v13.24H4.561A1.282,1.282,0,0,1,3.28,24.152V8.925H31.423V24.152a1.279,1.279,0,0,1-1.274,1.281ZM3.28,4.854A1.279,1.279,0,0,1,4.561,3.58H30.149a1.276,1.276,0,0,1,1.274,1.275V7.646H3.28Z"/>
      <path id="Path_23037" data-name="Path 23037" d="M39.766,6.478H31.958a.64.64,0,1,0,0,1.28h7.808a.64.64,0,0,0,0-1.28Z" transform="translate(-10.561 -1.505)"/>
      <path id="Path_23038" data-name="Path 23038" d="M7.149,6.427a.672.672,0,1,0,.672.672A.7.7,0,0,0,7.149,6.427Z" transform="translate(-1.613 -1.487)"/>
      <path id="Path_23039" data-name="Path 23039" d="M10.892,6.427a.672.672,0,1,0,.672.672A.7.7,0,0,0,10.892,6.427Z" transform="translate(-2.961 -1.487)"/>
      <path id="Path_23040" data-name="Path 23040" d="M14.635,6.427a.672.672,0,1,0,.672.672A.7.7,0,0,0,14.635,6.427Z" transform="translate(-4.309 -1.487)"/>
      <path id="Path_23041" data-name="Path 23041" d="M33.164,30.268l-1.228,1.066L31.8,31.15a.64.64,0,1,0-1.022.77l.552.732a.64.64,0,0,0,.93.1L34,31.234a.64.64,0,0,0-.839-.966Z" transform="translate(-10.319 -10.018)" fill="#2065ae"/>
      <path id="Path_23042" data-name="Path 23042" d="M33.222,17.908h-.64a.64.64,0,1,0,0,1.28h.64a.64.64,0,1,0,0-1.28Z" transform="translate(-10.786 -5.622)"/>
      <path id="Path_23043" data-name="Path 23043" d="M32.811,44.411a.672.672,0,1,0,.672.672A.7.7,0,0,0,32.811,44.411Z" transform="translate(-10.857 -15.169)"/>
      <path id="Path_23044" data-name="Path 23044" d="M30.929,25.094a4.469,4.469,0,1,0,4.466,4.472,4.477,4.477,0,0,0-4.466-4.472Zm0,7.658a3.189,3.189,0,1,1,3.186-3.186A3.193,3.193,0,0,1,30.929,32.752Z" transform="translate(-8.81 -8.211)" fill="#2065ae"/>
      <path id="Path_23045" data-name="Path 23045" d="M14.4,14.868H7.412a.936.936,0,0,0-.935.935v3.433a.936.936,0,0,0,.935.935H14.4a.936.936,0,0,0,.935-.935V15.8A.936.936,0,0,0,14.4,14.868Zm-.345,4.024h-6.3V16.147h6.3Z" transform="translate(-1.613 -4.527)" fill="#2065ae"/>
      <path id="Path_23046" data-name="Path 23046" d="M14.7,25.435H7.117a.64.64,0,1,0,0,1.28H14.7a.64.64,0,1,0,0-1.28Z" transform="translate(-1.613 -8.334)" fill="#2065ae"/>
      <path id="Path_23047" data-name="Path 23047" d="M14.7,29.782H7.117a.64.64,0,0,0,0,1.28H14.7a.64.64,0,1,0,0-1.28Z" transform="translate(-1.613 -9.9)" fill="#2065ae"/>
      <path id="Path_23048" data-name="Path 23048" d="M14.7,34.13H7.117a.64.64,0,0,0,0,1.28H14.7a.64.64,0,0,0,0-1.28Z" transform="translate(-1.613 -11.466)" fill="#2065ae"/>
    </g>
  </g>
</svg>
