<svg xmlns="http://www.w3.org/2000/svg" xmlns:xlink="http://www.w3.org/1999/xlink" width="92" height="92" viewBox="0 0 92 92">
  <defs>
    <filter id="Ellipse_781" x="0" y="0" width="92" height="92" filterUnits="userSpaceOnUse">
      <feOffset dy="3" input="SourceAlpha"/>
      <feGaussianBlur stdDeviation="3" result="blur"/>
      <feFlood flood-opacity="0.161"/>
      <feComposite operator="in" in2="blur"/>
      <feComposite in="SourceGraphic"/>
    </filter>
  </defs>
  <g id="Dairy_Supervisor" data-name="Dairy Supervisor" transform="translate(-707 -332)">
    <g transform="matrix(1, 0, 0, 1, 707, 332)" filter="url(#Ellipse_781)">
      <circle id="Ellipse_781-2" data-name="Ellipse 781" cx="37" cy="37" r="37" transform="translate(9 6)" fill="#fff"/>
    </g>
    <g id="Group_14220" data-name="Group 14220" transform="translate(0 -37.615)">
      <g id="affiliate-marketing_1_" data-name="affiliate-marketing (1)" transform="translate(737.356 396.549)">
        <path id="Path_23142" data-name="Path 23142" d="M14.666,1.4a.473.473,0,1,0-.472-.445.475.475,0,0,0,.472.445Zm1.912,0A.473.473,0,1,0,16.1.9.473.473,0,0,0,16.578,1.4Zm-3.706.233a.473.473,0,1,0-.557-.374.478.478,0,0,0,.557.374ZM.824,12.769a.476.476,0,1,0-.339-.581v0a.473.473,0,0,0,.34.576ZM11.078,2.092a.473.473,0,1,0-.6-.3A.475.475,0,0,0,11.078,2.092ZM2.119,22.968a.473.473,0,0,0-.182.644v0a.473.473,0,0,0,.829-.456l0-.008a.473.473,0,0,0-.644-.182ZM.59,14.656a.476.476,0,1,0-.47-.529A.473.473,0,0,0,.59,14.656Zm.766-3.718a.476.476,0,1,0-.264-.625A.477.477,0,0,0,1.356,10.938ZM9.363,2.774a.477.477,0,0,0,.232-.641.471.471,0,0,0-.632-.217.473.473,0,1,0,.4.858Zm20.512,9.609a.473.473,0,0,0,.917-.233l0-.008a.473.473,0,0,0-.915.24Zm-.939,11.47a.473.473,0,0,0,.417-.248v0a.473.473,0,1,0-.829-.456l0,.008A.477.477,0,0,0,28.937,23.853Zm.631-13.843a.473.473,0,0,0-.269.613l.006.014a.473.473,0,0,0,.876-.358h0a.473.473,0,0,0-.613-.269Zm1.061,3.652a.476.476,0,1,0,.533.42l0-.013a.473.473,0,0,0-.531-.407Zm-1.47-4.513a.473.473,0,0,0,.182-.644v0a.473.473,0,0,0-.829.456l0,.008A.47.47,0,0,0,29.159,9.149ZM20.168,2.078a.473.473,0,1,0-.309-.595A.476.476,0,0,0,20.168,2.078Zm-1.782-.454a.477.477,0,0,0,.55-.383.472.472,0,0,0-.382-.548h0a.473.473,0,1,0-.166.932Zm3.5,1.131a.473.473,0,1,0-.23-.63A.475.475,0,0,0,21.882,2.755ZM2.566,8.351a.476.476,0,1,0,.191.641.476.476,0,0,0-.191-.641Zm24.18,15.664a3.139,3.139,0,0,0-1.971.694L23.1,23.033a10.19,10.19,0,0,0,.172-13.746l1.711-1.711a3.165,3.165,0,1,0-.7-.642L22.611,8.61a10.2,10.2,0,0,0-13.939,0L7,6.934a3.15,3.15,0,1,0-.7.643L8.012,9.284a10.215,10.215,0,0,0-1.631,2.482.473.473,0,0,0,.858.4A9.271,9.271,0,0,1,9,9.608H9l0,0A9.231,9.231,0,1,1,6.553,14.27a.473.473,0,0,0-.929-.182,10.289,10.289,0,0,0-.192,1.978,10.172,10.172,0,0,0,2.754,6.967L6.511,24.709a3.15,3.15,0,1,0,.642.7l1.711-1.711a10.189,10.189,0,0,0,13.557,0L24.133,25.4a3.153,3.153,0,1,0,2.614-1.39Zm0-21.26a2.208,2.208,0,1,1-2.208,2.208A2.21,2.21,0,0,1,26.746,2.755ZM4.541,7.171A2.208,2.208,0,1,1,6.748,4.963,2.21,2.21,0,0,1,4.541,7.171Zm0,22.206a2.208,2.208,0,1,1,2.208-2.208A2.21,2.21,0,0,1,4.541,29.377Zm22.206,0a2.208,2.208,0,1,1,2.208-2.208A2.21,2.21,0,0,1,26.746,29.377Zm-4.838-.012-.008,0a.473.473,0,1,0,.406.855h0a.473.473,0,1,0-.4-.857Zm-1.716.681-.01,0a.473.473,0,0,0,.3.9h0a.473.473,0,0,0-.291-.9ZM31.287,16.052s0-.009,0-.013v-.006a.473.473,0,0,0-.946,0v.006s0,.01,0,.014,0,.009,0,.013v.006a.474.474,0,0,0,.946,0v-.006S31.287,16.056,31.287,16.052Zm-30.814.5a.473.473,0,0,0,.473-.473v-.006a.473.473,0,1,0-.473.48Zm30.28.942a.474.474,0,0,0-.527.413v.007a.473.473,0,0,0,.94.111v-.007a.472.472,0,0,0-.413-.523ZM18.4,30.5a.473.473,0,1,0,.164.932l.014,0A.473.473,0,0,0,18.4,30.5ZM30.459,19.38a.473.473,0,0,0-.576.34l0,.008a.473.473,0,1,0,.917.233v0a.473.473,0,0,0-.34-.576Zm-.534,1.83a.473.473,0,0,0-.613.269.479.479,0,0,0,.438.651.473.473,0,0,0,.439-.3l0-.012a.473.473,0,0,0-.269-.613ZM16.576,30.734h-.013a.473.473,0,0,0,.067.944h0a.473.473,0,0,0-.056-.945ZM1.712,22.106a.473.473,0,0,0,.269-.613l-.006-.014a.473.473,0,0,0-.876.358h0A.474.474,0,0,0,1.712,22.106ZM9.389,29.37a.473.473,0,1,0,.23.63A.473.473,0,0,0,9.389,29.37ZM.655,18.453a.476.476,0,1,0-.533-.42A.478.478,0,0,0,.655,18.453Zm.752,1.279a.473.473,0,1,0-.34.578.473.473,0,0,0,.34-.578Zm13.32,11a.473.473,0,1,0-.056.945H14.7a.473.473,0,0,0,.027-.945Zm-3.618-.684a.473.473,0,0,0-.6.3.482.482,0,0,0,.455.627.473.473,0,0,0,.145-.923Zm1.79.457-.014,0a.473.473,0,1,0-.167.931.533.533,0,0,0,.092.009.473.473,0,0,0,.09-.938Z" transform="translate(0 0)"/>
      </g>
      <g id="affiliate-marketing_1_2" data-name="affiliate-marketing (1)" transform="translate(737.356 396.549)">
        <path id="Path_23142-2" data-name="Path 23142" d="M10.1,20.228a1.842,1.842,0,0,0,.913,2,9.544,9.544,0,0,0,2.278.9.473.473,0,1,0,.232-.917,8.6,8.6,0,0,1-2.052-.811.891.891,0,0,1-.447-.965,4.753,4.753,0,0,1,1.643-2.641,4.684,4.684,0,0,1,1.355-.768,3.243,3.243,0,0,0,3.249,0,4.749,4.749,0,0,1,3,3.408.893.893,0,0,1-.447.965,8.648,8.648,0,0,1-4.175,1.074.473.473,0,0,0,0,.946,9.6,9.6,0,0,0,4.633-1.192,1.844,1.844,0,0,0,.912-2,5.7,5.7,0,0,0-3.1-3.879,3.24,3.24,0,0,0,.805-2.14V10.816a2.106,2.106,0,0,0-2.1-2.1h-2.3a2.106,2.106,0,0,0-2.1,2.1v3.393a3.24,3.24,0,0,0,.8,2.139,5.641,5.641,0,0,0-1.125.712,5.7,5.7,0,0,0-1.97,3.168Zm3.237-9.413a1.159,1.159,0,0,1,1.157-1.157h2.3a1.159,1.159,0,0,1,1.157,1.157v1.19a3.41,3.41,0,0,0-2.881-.342l-1.736.572V10.815Zm0,2.417,2.032-.669a2.473,2.473,0,0,1,2.169.3l.416.28v1.067a2.308,2.308,0,0,1-4.616,0Z" transform="translate(0 0)" fill="#2065ae"/>
      </g>
    </g>
  </g>
</svg>
