<svg xmlns="http://www.w3.org/2000/svg" xmlns:xlink="http://www.w3.org/1999/xlink" width="92" height="92" viewBox="0 0 92 92">
  <defs>
    <filter id="Ellipse_803" x="0" y="0" width="92" height="92" filterUnits="userSpaceOnUse">
      <feOffset dy="3" input="SourceAlpha"/>
      <feGaussianBlur stdDeviation="3" result="blur"/>
      <feFlood flood-opacity="0.161"/>
      <feComposite operator="in" in2="blur"/>
      <feComposite in="SourceGraphic"/>
    </filter>
  </defs>
  <g id="e-Vet_Mobile" data-name="e-Vet Mobile" transform="translate(-707 -920)">
    <g transform="matrix(1, 0, 0, 1, 707, 920)" filter="url(#Ellipse_803)">
      <circle id="Ellipse_803-2" data-name="Ellipse 803" cx="37" cy="37" r="37" transform="translate(9 6)" fill="#fff"/>
    </g>
    <g id="surface1" transform="translate(740.75 943.791)">
      <path id="Path_23070" data-name="Path 23070" d="M588.613,363.484l-.863.944,3.927,3.6a4.493,4.493,0,0,1,1.452,3.3v15.675h1.281V371.332a5.778,5.778,0,0,0-1.868-4.249Zm0,0" transform="translate(-563.424 -348.589)"/>
      <path id="Path_23071" data-name="Path 23071" d="M20.1,0H3.452A3.206,3.206,0,0,0,.25,3.2V35.217a3.206,3.206,0,0,0,3.2,3.2H19.459V37.273a14.557,14.557,0,0,1,2.454-8.1.64.64,0,0,0-.08-.808l-4.482-4.482a2.077,2.077,0,0,1,.152-3.073,2.157,2.157,0,0,1,2.867.221l6.32,6.321.905-.905-4.295-4.3V3.2A3.206,3.206,0,0,0,20.1,0Zm1.921,20.865-.745-.745a3.446,3.446,0,0,0-4.587-.3,3.358,3.358,0,0,0-.243,4.968L20.563,28.9a15.832,15.832,0,0,0-2.379,8.236H3.452a1.921,1.921,0,0,1-1.921-1.921V33.3H17.538V32.015H1.531V5.122h20.49Zm0-17.023H1.531V3.2A1.921,1.921,0,0,1,3.452,1.281H20.1A1.921,1.921,0,0,1,22.021,3.2Zm0,0"/>
      <path id="Path_23072" data-name="Path 23072" d="M64.031,161.372h2.561a1.28,1.28,0,0,0,1.281-1.281v-2.561a1.28,1.28,0,0,0-1.281-1.281H64.031a1.28,1.28,0,0,0-1.281,1.281v2.561A1.28,1.28,0,0,0,64.031,161.372Zm0-3.842h2.561v2.561H64.031Zm0,0" transform="translate(-59.939 -149.847)" fill="#2065ae"/>
      <path id="Path_23073" data-name="Path 23073" d="M220.281,161.372h2.561a1.28,1.28,0,0,0,1.281-1.281v-2.561a1.28,1.28,0,0,0-1.281-1.281h-2.561A1.28,1.28,0,0,0,219,157.531v2.561A1.28,1.28,0,0,0,220.281,161.372Zm0-3.842h2.561v2.561h-2.561Zm0,0" transform="translate(-209.786 -149.847)" fill="#2065ae"/>
      <path id="Path_23074" data-name="Path 23074" d="M376.531,161.372h2.561a1.28,1.28,0,0,0,1.281-1.281v-2.561a1.28,1.28,0,0,0-1.281-1.281h-2.561a1.28,1.28,0,0,0-1.281,1.281v2.561A1.28,1.28,0,0,0,376.531,161.372Zm0-3.842h2.561v2.561h-2.561Zm0,0" transform="translate(-359.633 -149.847)" fill="#2065ae"/>
      <path id="Path_23075" data-name="Path 23075" d="M64.031,317.622h2.561a1.28,1.28,0,0,0,1.281-1.281v-2.561a1.28,1.28,0,0,0-1.281-1.281H64.031a1.28,1.28,0,0,0-1.281,1.281v2.561A1.28,1.28,0,0,0,64.031,317.622Zm0-3.842h2.561v2.561H64.031Zm0,0" transform="translate(-59.939 -299.694)" fill="#2065ae"/>
      <path id="Path_23076" data-name="Path 23076" d="M64.031,473.872h2.561a1.28,1.28,0,0,0,1.281-1.281v-2.561a1.28,1.28,0,0,0-1.281-1.281H64.031a1.28,1.28,0,0,0-1.281,1.281v2.561A1.28,1.28,0,0,0,64.031,473.872Zm0-3.842h2.561v2.561H64.031Zm0,0" transform="translate(-59.939 -449.541)" fill="#2065ae"/>
      <path id="Path_23077" data-name="Path 23077" d="M220.281,317.622h2.561a1.28,1.28,0,0,0,1.281-1.281v-2.561a1.28,1.28,0,0,0-1.281-1.281h-2.561A1.28,1.28,0,0,0,219,313.781v2.561A1.28,1.28,0,0,0,220.281,317.622Zm0-3.842h2.561v2.561h-2.561Zm0,0" transform="translate(-209.786 -299.694)" fill="#2065ae"/>
      <path id="Path_23078" data-name="Path 23078" d="M376.531,317.622h2.561a1.28,1.28,0,0,0,1.281-1.281v-2.561a1.28,1.28,0,0,0-1.281-1.281h-2.561a1.28,1.28,0,0,0-1.281,1.281v2.561A1.28,1.28,0,0,0,376.531,317.622Zm0-3.842h2.561v2.561h-2.561Zm0,0" transform="translate(-359.633 -299.694)" fill="#2065ae"/>
      <path id="Path_23079" data-name="Path 23079" d="M220.281,473.872h2.561a1.28,1.28,0,0,0,1.281-1.281v-2.561a1.28,1.28,0,0,0-1.281-1.281h-2.561A1.28,1.28,0,0,0,219,470.031v2.561A1.28,1.28,0,0,0,220.281,473.872Zm0-3.842h2.561v2.561h-2.561Zm0,0" transform="translate(-209.786 -449.541)" fill="#2065ae"/>
      <path id="Path_23080" data-name="Path 23080" d="M64.031,630.122h2.561a1.28,1.28,0,0,0,1.281-1.281v-2.561A1.28,1.28,0,0,0,66.592,625H64.031a1.28,1.28,0,0,0-1.281,1.281v2.561A1.28,1.28,0,0,0,64.031,630.122Zm0-3.842h2.561v2.561H64.031Zm0,0" transform="translate(-59.939 -599.388)" fill="#2065ae"/>
      <path id="Path_23081" data-name="Path 23081" d="M220.281,630.122h2.561a1.28,1.28,0,0,0,1.281-1.281v-2.561A1.28,1.28,0,0,0,222.842,625h-2.561A1.28,1.28,0,0,0,219,626.281v2.561A1.28,1.28,0,0,0,220.281,630.122Zm0-3.842h2.561v2.561h-2.561Zm0,0" transform="translate(-209.786 -599.388)" fill="#2065ae"/>
      <path id="Path_23082" data-name="Path 23082" d="M265.875,843.75h1.281v1.281h-1.281Zm0,0" transform="translate(-254.74 -809.173)"/>
    </g>
  </g>
</svg>
