<svg xmlns="http://www.w3.org/2000/svg" xmlns:xlink="http://www.w3.org/1999/xlink" width="92" height="92" viewBox="0 0 92 92">
  <defs>
    <filter id="Ellipse_804" x="0" y="0" width="92" height="92" filterUnits="userSpaceOnUse">
      <feOffset dy="3" input="SourceAlpha"/>
      <feGaussianBlur stdDeviation="3" result="blur"/>
      <feFlood flood-opacity="0.161"/>
      <feComposite operator="in" in2="blur"/>
      <feComposite in="SourceGraphic"/>
    </filter>
  </defs>
  <g id="Procurement_Web_Panel" data-name="Procurement Web Panel" transform="translate(-277 -1214)">
    <g transform="matrix(1, 0, 0, 1, 277, 1214)" filter="url(#Ellipse_804)">
      <circle id="Ellipse_804-2" data-name="Ellipse 804" cx="37" cy="37" r="37" transform="translate(9 6)" fill="#fff"/>
    </g>
    <g id="procurement" transform="translate(307.357 1236.923)">
      <g id="Group_14183" data-name="Group 14183" transform="translate(0 4.722)">
        <path id="Path_23049" data-name="Path 23049" d="M30.523,29.518h-1.4V27.226a.458.458,0,1,0-.917,0v2.292H19.658V28.205c.115.011.232.017.35.017a3.8,3.8,0,0,0,3.546-2.444h2.769A.775.775,0,0,0,27.1,25V21.945h1.109v3.142a.458.458,0,0,0,.917,0V21.793a.765.765,0,0,0-.764-.764H27.1V8.2a.775.775,0,0,0-.774-.774H17.612q-.06-.124-.127-.245a.458.458,0,1,0-.8.445A3.87,3.87,0,1,1,15.37,6.238a.458.458,0,1,0,.491-.774,4.782,4.782,0,1,0-2.942,8.805v.559H6.294V10.515a1.682,1.682,0,0,0-1.68-1.68H.764A.765.765,0,0,0,0,9.6v1.348a.765.765,0,0,0,.764.764H3.576V32.359a1.071,1.071,0,0,0,1.069,1.069H7.28a2.138,2.138,0,0,0,4.268,0h1.04a.458.458,0,0,0,0-.917H11.4a2.138,2.138,0,0,0-3.981,0H6.294V30.435H30.37v2.077H27a2.138,2.138,0,0,0-3.981,0H14.727a.458.458,0,0,0,0,.917h8.144a2.138,2.138,0,0,0,4.268,0h3.384a.765.765,0,0,0,.764-.764V30.282a.765.765,0,0,0-.764-.764ZM5.378,32.512H4.645a.153.153,0,0,1-.153-.153V11.252a.458.458,0,0,0-.458-.458H.917V9.751h3.7a.765.765,0,0,1,.764.764Zm4.036-.441a1.222,1.222,0,1,1-1.222,1.222A1.224,1.224,0,0,1,9.414,32.071Zm10.595-4.765a2.88,2.88,0,1,1,2.88-2.88A2.883,2.883,0,0,1,20.008,27.305ZM26.182,8.346v1.61H18.063c.014-.149.022-.3.022-.452a4.788,4.788,0,0,0-.143-1.158Zm-12.347,5.91a4.754,4.754,0,0,0,2.238-.858h4.55a.458.458,0,1,0,0-.917H17.04a4.773,4.773,0,0,0,.845-1.61h8.3V24.861h-2.4a3.8,3.8,0,1,0-7.541,0h-2.4Zm2.627,11.521A3.815,3.815,0,0,0,18.742,28v1.514H6.294V21.945h4.1v2.149a.642.642,0,0,0,.642.642h1.883V25a.775.775,0,0,0,.774.774Zm-5.151-3.832h1.608V23.82H11.311Zm-1.978-6.2h1.746v1.481H9.333Zm-.917,0V17.5a.642.642,0,0,0,.642.642h2.3A.642.642,0,0,0,12,17.5V15.746h.923v5.283H6.294V15.746ZM25,34.515a1.222,1.222,0,1,1,1.222-1.222A1.224,1.224,0,0,1,25,34.515Z" transform="translate(0 -4.722)"/>
        <path id="Path_23050" data-name="Path 23050" d="M298.4,307.091l-1.4,1.4-.973-.973a.458.458,0,0,0-.648.648l1.3,1.3a.458.458,0,0,0,.648,0l1.721-1.721a.458.458,0,0,0-.648-.648Z" transform="translate(-277.206 -288.488)" fill="#2065ae"/>
        <path id="Path_23051" data-name="Path 23051" d="M380.066,132.633h.442a.458.458,0,1,0,0-.917h-.442a.458.458,0,0,0,0,.917Z" transform="translate(-356.411 -123.956)" fill="#2065ae"/>
        <path id="Path_23052" data-name="Path 23052" d="M253.484,165.707h8.177a.458.458,0,0,0,0-.917h-8.177a.458.458,0,1,0,0,.917Z" transform="translate(-237.564 -155.009)" fill="#2065ae"/>
        <path id="Path_23053" data-name="Path 23053" d="M315.491,197.863h-4.674a.458.458,0,0,0,0,.917h4.674a.458.458,0,0,0,0-.917Z" transform="translate(-291.394 -186.061)" fill="#2065ae"/>
        <path id="Path_23054" data-name="Path 23054" d="M253.484,198.78H255.6a.458.458,0,1,0,0-.917h-2.114a.458.458,0,1,0,0,.917Z" transform="translate(-237.564 -186.061)" fill="#2065ae"/>
        <path id="Path_23055" data-name="Path 23055" d="M262.12,231.4a.458.458,0,0,0-.458-.458h-8.177a.458.458,0,1,0,0,.917h8.177A.458.458,0,0,0,262.12,231.4Z" transform="translate(-237.564 -217.115)" fill="#2065ae"/>
        <path id="Path_23056" data-name="Path 23056" d="M185.361,42.234a.458.458,0,0,0,.458-.458v-.195h.333a1.314,1.314,0,1,0,0-2.627h-1.581a.4.4,0,0,1-.4-.4v-.026a.4.4,0,0,1,.4-.4h1.9a.458.458,0,1,0,0-.917h-.653v-.195a.458.458,0,1,0-.917,0v.195h-.331a1.315,1.315,0,0,0-1.315,1.315v.026a1.317,1.317,0,0,0,1.315,1.315h1.581a.4.4,0,0,1,0,.794h-1.917a.458.458,0,0,0,0,.917h.667v.195A.458.458,0,0,0,185.361,42.234Z" transform="translate(-172.058 -34.614)"/>
      </g>
    </g>
  </g>
</svg>
