<svg xmlns="http://www.w3.org/2000/svg" xmlns:xlink="http://www.w3.org/1999/xlink" width="92" height="92" viewBox="0 0 92 92">
  <defs>
    <filter id="Ellipse_781" x="0" y="0" width="92" height="92" filterUnits="userSpaceOnUse">
      <feOffset dy="3" input="SourceAlpha"/>
      <feGaussianBlur stdDeviation="3" result="blur"/>
      <feFlood flood-opacity="0.161"/>
      <feComposite operator="in" in2="blur"/>
      <feComposite in="SourceGraphic"/>
    </filter>
  </defs>
  <g id="Asset_Management" data-name="Asset Management" transform="translate(-707 -332)">
    <g transform="matrix(1, 0, 0, 1, 707, 332)" filter="url(#Ellipse_781)">
      <circle id="Ellipse_781-2" data-name="Ellipse 781" cx="37" cy="37" r="37" transform="translate(9 6)" fill="#fff"/>
    </g>
    <g id="asset-management" transform="translate(736.428 358.393)">
      <path id="Path_23099" data-name="Path 23099" d="M30.517,30H29.51v1.007a1.51,1.51,0,0,0,0,3.021h1.007a.5.5,0,0,1,0,1.007h-1.51v-.5H28v1.51h1.51v1.007h1.007V36.042a1.51,1.51,0,0,0,0-3.021H29.51a.5.5,0,0,1,0-1.007h1.51v.5h1.007v-1.51h-1.51Z" transform="translate(-13.406 -14.399)" fill="#2065ae"/>
      <path id="Path_23100" data-name="Path 23100" d="M32.09,25.668a6.391,6.391,0,0,0-2.182-4.81l-1.766-1.545,1.576-4.73-2.865-.716-1.363,1.817-1.3-1.3-2.838.709,1.586,4.23-1.755,1.536a6.391,6.391,0,0,0,4.208,11.2H25.7a6.4,6.4,0,0,0,6.391-6.391ZM23.88,15.5,25.6,17.218l1.658-2.211,1.162.291L27.2,18.969H23.88L22.69,15.8ZM25.7,31.052h-.308a5.384,5.384,0,0,1-3.545-9.436l1.874-1.64h3.65l1.875,1.64A5.384,5.384,0,0,1,25.7,31.052Z" transform="translate(-8.938 -6.389)" fill="#2065ae"/>
      <path id="Path_23101" data-name="Path 23101" d="M7.007,16.6a10.585,10.585,0,0,1,9.6-9.6l.458-.041V2.927l-.539.038A14.694,14.694,0,0,0,2.965,16.522l-.038.539H6.965Zm5.166-9.316c-.3.156-.586.325-.866.5L10.195,6.128a13.63,13.63,0,0,1,1.207-.7ZM12.316,5a13.482,13.482,0,0,1,1.333-.487l.4,1.988c-.327.1-.646.223-.96.353ZM10.483,8.372q-.394.3-.76.639L8.309,7.6a13.791,13.791,0,0,1,1.06-.892ZM9.011,9.723q-.335.366-.639.759L6.705,9.368q.419-.553.892-1.06ZM7.792,11.306q-.27.421-.5.867L5.426,11.4a13.634,13.634,0,0,1,.7-1.207Zm-.934,1.779c-.131.314-.25.633-.353.96l-1.988-.4A13.355,13.355,0,0,1,5,12.316Zm9.2-7.03c-.351.046-.7.109-1.036.185l-.393-1.975a13.386,13.386,0,0,1,1.428-.246Zm-12.035,10a13.386,13.386,0,0,1,.246-1.428l1.975.393c-.077.34-.14.685-.186,1.036Z" transform="translate(-0.957 -0.957)"/>
      <path id="Path_23102" data-name="Path 23102" d="M43.054,33.458a10.585,10.585,0,0,1-9.6,9.6L33,43.1v4.038l.539-.038A14.693,14.693,0,0,0,47.1,33.539L47.134,33H43.1Zm2.988.549A13.69,13.69,0,0,1,34.007,46.042V44.007a11.593,11.593,0,0,0,10-10Z" transform="translate(-15.889 -15.889)"/>
      <path id="Path_23103" data-name="Path 23103" d="M6.05,33.458,6.008,33H1.97l.038.539A14.652,14.652,0,0,0,7.773,44.144L5.826,46.09h-1.9a1.51,1.51,0,1,0,0,1.007H6.243l2.364-2.364A14.5,14.5,0,0,0,15.565,47.1l.539.038V43.1l-.458-.041a10.585,10.585,0,0,1-9.6-9.6ZM2.51,47.1a.5.5,0,1,1,.5-.5A.5.5,0,0,1,2.51,47.1ZM15.1,46.042A13.69,13.69,0,0,1,3.062,34.007H5.1a11.593,11.593,0,0,0,10,10Z" transform="translate(0 -15.889)"/>
      <path id="Path_23104" data-name="Path 23104" d="M45.176,3.014a1.51,1.51,0,1,0,0-1.007H42.861L40.5,4.371a14.5,14.5,0,0,0-6.958-2.363L33,1.97V6.008l.458.041a10.585,10.585,0,0,1,9.6,9.6l.041.458h4.038l-.038-.539A14.652,14.652,0,0,0,41.331,4.96l1.947-1.946Zm1.418-1.007a.5.5,0,1,1-.5.5A.5.5,0,0,1,46.594,2.007ZM46.042,15.1H44.007a11.593,11.593,0,0,0-10-10V3.062A13.69,13.69,0,0,1,46.042,15.1Z" transform="translate(-15.889)"/>
    </g>
  </g>
</svg>
