<svg xmlns="http://www.w3.org/2000/svg" xmlns:xlink="http://www.w3.org/1999/xlink" width="92" height="92" viewBox="0 0 92 92">
  <defs>
    <filter id="Ellipse_789" x="0" y="0" width="92" height="92" filterUnits="userSpaceOnUse">
      <feOffset dy="3" input="SourceAlpha"/>
      <feGaussianBlur stdDeviation="3" result="blur"/>
      <feFlood flood-opacity="0.161"/>
      <feComposite operator="in" in2="blur"/>
      <feComposite in="SourceGraphic"/>
    </filter>
    <clipPath id="clip-path">
      <path id="path3386" d="M0-682.665H32v32H0Z" transform="translate(0 682.665)"/>
    </clipPath>
  </defs>
  <g id="Field_Force_Tracking" data-name="Field Force Tracking" transform="translate(-277 -1214)">
    <g transform="matrix(1, 0, 0, 1, 277, 1214)" filter="url(#Ellipse_789)">
      <circle id="Ellipse_789-2" data-name="Ellipse 789" cx="37" cy="37" r="37" transform="translate(9 6)" fill="#fff"/>
    </g>
    <g id="g3372" transform="translate(307 1923.665)">
      <g id="g3374" transform="translate(9.813 -665.781)">
        <path id="path3376" d="M-62.493,0h-3.073" transform="translate(65.567)" fill="none" stroke="#000" stroke-linecap="round" stroke-linejoin="round" stroke-miterlimit="10" stroke-width="1"/>
      </g>
      <g id="g3378" transform="translate(19.114 -665.781)">
        <path id="path3380" d="M-62.493,0h-3.073" transform="translate(65.567)" fill="none" stroke="#000" stroke-linecap="round" stroke-linejoin="round" stroke-miterlimit="10" stroke-width="1"/>
      </g>
      <g id="g3382" transform="translate(0 -682.665)">
        <g id="g3384" transform="translate(0 0)" clip-path="url(#clip-path)">
          <g id="g3390" transform="translate(9.691 9.876)">
            <path id="path3392" d="M0-67.443a2.523,2.523,0,0,1,1.731-2.246L4.983-70.76" transform="translate(0 70.76)" fill="none" stroke="#000" stroke-linecap="round" stroke-linejoin="round" stroke-miterlimit="10" stroke-width="1"/>
          </g>
          <g id="g3394" transform="translate(17.326 9.876)">
            <path id="path3396" d="M0,0,3.252,1.071A2.524,2.524,0,0,1,4.983,3.317" fill="none" stroke="#000" stroke-linecap="round" stroke-linejoin="round" stroke-miterlimit="10" stroke-width="1"/>
          </g>
          <g id="g3398" transform="translate(14.674 8.298)">
            <path id="path3400" d="M-53.919,0V1.578A1.326,1.326,0,0,1-55.245,2.9a1.326,1.326,0,0,1-1.326-1.326V0" transform="translate(56.571)" fill="none" stroke="#000" stroke-linecap="round" stroke-linejoin="round" stroke-miterlimit="10" stroke-width="1"/>
          </g>
          <g id="g3402" transform="translate(12.969 0.469)">
            <path id="path3404" d="M-123.241-61.62a3.031,3.031,0,0,0-3.031-3.03,3.031,3.031,0,0,0-3.031,3.03v2.02a3.031,3.031,0,0,0,3.031,3.031,3.031,3.031,0,0,0,3.031-3.031Z" transform="translate(129.302 64.651)" fill="none" stroke="#000" stroke-linecap="round" stroke-linejoin="round" stroke-miterlimit="10" stroke-width="1"/>
          </g>
          <g id="g3406" transform="translate(18.938 20.419)">
            <path id="path3408" d="M0-62.144A2.527,2.527,0,0,1,1.7-64.13L4.954-65.2" transform="translate(0 65.2)" fill="none" stroke="#000" stroke-linecap="round" stroke-linejoin="round" stroke-miterlimit="10" stroke-width="1"/>
          </g>
          <g id="g3410" transform="translate(22.314 26.797)">
            <path id="path3412" d="M-187.422,0V.631h-9.217" transform="translate(196.64)" fill="none" stroke="#000" stroke-linecap="round" stroke-linejoin="round" stroke-miterlimit="10" stroke-width="1"/>
          </g>
          <g id="g3414" transform="translate(26.544 20.419)">
            <path id="path3416" d="M0,0,3.252,1.07a2.526,2.526,0,0,1,1.736,2.4v.718" fill="none" stroke="#000" stroke-linecap="round" stroke-linejoin="round" stroke-miterlimit="10" stroke-width="1"/>
          </g>
          <g id="g3418" transform="translate(8.108 20.419)">
            <path id="path3420" d="M0,0,3.252,1.07a2.527,2.527,0,0,1,1.7,1.986" fill="none" stroke="#000" stroke-linecap="round" stroke-linejoin="round" stroke-miterlimit="10" stroke-width="1"/>
          </g>
          <g id="g3422" transform="translate(0.469 26.797)">
            <path id="path3424" d="M-187.422-12.823h-9.217v-.631" transform="translate(196.64 13.453)" fill="none" stroke="#000" stroke-linecap="round" stroke-linejoin="round" stroke-miterlimit="10" stroke-width="1"/>
          </g>
          <g id="g3426" transform="translate(0.469 20.419)">
            <path id="path3428" d="M0-85.151v-.718a2.526,2.526,0,0,1,1.736-2.4l3.252-1.07" transform="translate(0 89.338)" fill="none" stroke="#000" stroke-linecap="round" stroke-linejoin="round" stroke-miterlimit="10" stroke-width="1"/>
          </g>
          <g id="g3430" transform="translate(23.892 18.841)">
            <path id="path3432" d="M-53.918,0V1.578A1.326,1.326,0,0,1-55.243,2.9a1.326,1.326,0,0,1-1.326-1.326V0" transform="translate(56.569)" fill="none" stroke="#000" stroke-linecap="round" stroke-linejoin="round" stroke-miterlimit="10" stroke-width="1"/>
          </g>
          <g id="g3434" transform="translate(22.187 11.012)">
            <path id="path3436" d="M-123.24-61.62a3.031,3.031,0,0,0-3.031-3.03,3.03,3.03,0,0,0-3.031,3.03v2.02a3.031,3.031,0,0,0,3.031,3.031A3.031,3.031,0,0,0-123.24-59.6Z" transform="translate(129.301 64.651)" fill="none" stroke="#000" stroke-linecap="round" stroke-linejoin="round" stroke-miterlimit="10" stroke-width="1"/>
          </g>
          <g id="g3438" transform="translate(28.88 25.786)">
            <path id="path3440" d="M0,0V1.642" transform="translate(0)" fill="none" stroke="#000" stroke-linecap="round" stroke-linejoin="round" stroke-miterlimit="10" stroke-width="1"/>
          </g>
          <g id="g3442" transform="translate(5.456 18.841)">
            <path id="path3444" d="M-53.918,0V1.578A1.326,1.326,0,0,1-55.243,2.9a1.326,1.326,0,0,1-1.326-1.326V0" transform="translate(56.569)" fill="none" stroke="#000" stroke-linecap="round" stroke-linejoin="round" stroke-miterlimit="10" stroke-width="1"/>
          </g>
          <g id="g3446" transform="translate(3.752 11.012)">
            <path id="path3448" d="M-123.24-61.62a3.03,3.03,0,0,0-3.03-3.03,3.031,3.031,0,0,0-3.031,3.03v2.02a3.031,3.031,0,0,0,3.031,3.031,3.031,3.031,0,0,0,3.03-3.031Z" transform="translate(129.301 64.651)" fill="none" stroke="#000" stroke-linecap="round" stroke-linejoin="round" stroke-miterlimit="10" stroke-width="1"/>
          </g>
          <g id="g3450" transform="translate(3.12 25.786)">
            <path id="path3452" d="M0,0V1.642" transform="translate(0)" fill="none" stroke="#000" stroke-linecap="round" stroke-linejoin="round" stroke-miterlimit="10" stroke-width="1"/>
          </g>
          <g id="g3454" transform="translate(9.686 22.945)">
            <path id="path3456" d="M-256.75-161.858v.626h-12.627v-5.117a2.525,2.525,0,0,1,1.736-2.4l3.252-1.07" transform="translate(269.377 169.818)" fill="none" stroke="#2065ae" stroke-linecap="round" stroke-linejoin="round" stroke-miterlimit="10" stroke-width="1"/>
          </g>
          <g id="g3458" transform="translate(17.326 22.945)">
            <path id="path3460" d="M0,0,3.252,1.07a2.525,2.525,0,0,1,1.736,2.4v2.3" fill="none" stroke="#2065ae" stroke-linecap="round" stroke-linejoin="round" stroke-miterlimit="10" stroke-width="1"/>
          </g>
          <g id="g3462" transform="translate(14.674 21.366)">
            <path id="path3464" d="M-53.919,0V1.578A1.326,1.326,0,0,1-55.245,2.9a1.326,1.326,0,0,1-1.326-1.326V0" transform="translate(56.571)" fill="none" stroke="#2065ae" stroke-linecap="round" stroke-linejoin="round" stroke-miterlimit="10" stroke-width="1"/>
          </g>
          <g id="g3466" transform="translate(12.969 13.538)">
            <path id="path3468" d="M-123.241-61.62a3.031,3.031,0,0,0-3.031-3.03,3.031,3.031,0,0,0-3.031,3.03v2.02a3.031,3.031,0,0,0,3.031,3.031,3.031,3.031,0,0,0,3.031-3.031Z" transform="translate(129.302 64.651)" fill="none" stroke="#2065ae" stroke-linecap="round" stroke-linejoin="round" stroke-miterlimit="10" stroke-width="1"/>
          </g>
          <g id="g3470" transform="translate(19.662 28.311)">
            <path id="path3472" d="M0,0V3.22" transform="translate(0)" fill="none" stroke="#2065ae" stroke-linecap="round" stroke-linejoin="round" stroke-miterlimit="10" stroke-width="1"/>
          </g>
          <g id="g3474" transform="translate(12.338 28.311)">
            <path id="path3476" d="M0,0V3.22" fill="none" stroke="#2065ae" stroke-linecap="round" stroke-linejoin="round" stroke-miterlimit="10" stroke-width="1"/>
          </g>
        </g>
      </g>
    </g>
  </g>
</svg>
