<svg xmlns="http://www.w3.org/2000/svg" xmlns:xlink="http://www.w3.org/1999/xlink" width="92" height="92" viewBox="0 0 92 92">
  <defs>
    <filter id="Ellipse_785" x="0" y="0" width="92" height="92" filterUnits="userSpaceOnUse">
      <feOffset dy="3" input="SourceAlpha"/>
      <feGaussianBlur stdDeviation="3" result="blur"/>
      <feFlood flood-opacity="0.161"/>
      <feComposite operator="in" in2="blur"/>
      <feComposite in="SourceGraphic"/>
    </filter>
  </defs>
  <g id="Finance_and_Accounting" data-name="Finance and Accounting" transform="translate(-707 -920)">
    <g transform="matrix(1, 0, 0, 1, 707, 920)" filter="url(#Ellipse_785)">
      <circle id="Ellipse_785-2" data-name="Ellipse 785" cx="37" cy="37" r="37" transform="translate(9 6)" fill="#fff"/>
    </g>
    <g id="budget" transform="translate(737.01 947.526)">
      <g id="Group_14186" data-name="Group 14186" transform="translate(0.549)">
        <g id="Group_14185" data-name="Group 14185" transform="translate(0)">
          <path id="Path_23120" data-name="Path 23120" d="M27.643,10.116H25.412V5.726a2.851,2.851,0,0,0-.788-1.965L23.183,2.253C21.959.992,21.8.636,21.076.283A2.851,2.851,0,0,0,19.842,0H9.313A2.847,2.847,0,0,0,6.469,2.844V18.182h-.6a1.64,1.64,0,0,0-1.164,2.8,1.635,1.635,0,0,0-.476,1.155,1.683,1.683,0,0,0,.032.325A4.136,4.136,0,0,0,4.852,30.7l8.091,0a1.64,1.64,0,0,0,1.164-2.8,1.632,1.632,0,0,0,.474-1.073H15.2v.329a3.792,3.792,0,0,0,3.788,3.788h8.659a3.792,3.792,0,0,0,3.788-3.788V13.9A3.792,3.792,0,0,0,27.643,10.116Zm-3.87-5.838h0l0,0h0l0,0,0,0h0l0,0,0,0H21.352V1.719ZM5.869,19.154h7.074a.668.668,0,1,1,0,1.337H5.869a.668.668,0,1,1,0-1.337Zm0,2.309h7.074a.668.668,0,1,1,0,1.337H8.057a3.959,3.959,0,0,0-.616-.222,4.1,4.1,0,0,0-.972-.143c-.1,0-.191,0-.286,0H5.275a.657.657,0,0,1-.075-.306A.67.67,0,0,1,5.869,21.463Zm7.742,2.978a.669.669,0,0,1-.668.668H10.222A4.09,4.09,0,0,0,9.4,23.773h3.546A.67.67,0,0,1,13.611,24.441ZM3.5,23.568a4.2,4.2,0,0,0-.766.982H2.172A3.211,3.211,0,0,1,3.5,23.568ZM1.654,25.462h.708a4.2,4.2,0,0,0-.132.729H1.482A3.2,3.2,0,0,1,1.654,25.462Zm.078,2.41A3.192,3.192,0,0,1,1.5,27.1h.743a3.669,3.669,0,0,0,.174.769Zm.607.912c.3,0,.472,0,.512,0a4.106,4.106,0,0,0,.654.791A3.212,3.212,0,0,1,2.339,28.783Zm4.148,1.009a3.225,3.225,0,1,1,2.043-5.6A3.222,3.222,0,0,1,6.488,29.793Zm6.455-.064H9.019a4.165,4.165,0,0,0,1.045-1.337h2.879a.668.668,0,0,1,0,1.337Zm.663-2.9a.669.669,0,0,1-.663.587H10.4a4.177,4.177,0,0,0,.059-1.337h2.485A.669.669,0,0,1,13.606,26.832Zm1.591-.972h-.878a1.613,1.613,0,0,0-.212-.264,1.637,1.637,0,0,0,0-2.309,1.637,1.637,0,0,0,0-2.309,1.642,1.642,0,0,0-1.164-2.8h-5.5V2.844A1.874,1.874,0,0,1,9.313.972H20.38V4.781a.486.486,0,0,0,.486.486h3.516c.1.394.039.264.058,4.849H18.985A3.792,3.792,0,0,0,15.2,13.9V25.859Zm15.323,1.3a2.879,2.879,0,0,1-2.876,2.876H18.985a2.88,2.88,0,0,1-2.876-2.876V13.9a2.88,2.88,0,0,1,2.876-2.876h8.659A2.879,2.879,0,0,1,30.52,13.9V27.161Z" transform="translate(-0.549)"/>
        </g>
      </g>
      <g id="Group_14188" data-name="Group 14188" transform="translate(17.487 12.061)">
        <g id="Group_14187" data-name="Group 14187">
          <path id="Path_23121" data-name="Path 23121" d="M290.882,199.538h-8.594a1.53,1.53,0,0,0-1.53,1.53v1.668a1.53,1.53,0,0,0,1.53,1.53h1.654a.456.456,0,1,0,0-.912h-1.654a.621.621,0,0,1-.619-.619v-1.668a.621.621,0,0,1,.619-.619h8.594a.619.619,0,0,1,.619.619v1.668a.619.619,0,0,1-.619.619h-4.975a.456.456,0,1,0,0,.912h4.975a1.532,1.532,0,0,0,1.53-1.53v-1.668A1.532,1.532,0,0,0,290.882,199.538Z" transform="translate(-280.757 -199.538)" fill="#2065ae"/>
        </g>
      </g>
      <g id="Group_14190" data-name="Group 14190" transform="translate(17.487 21.666)">
        <g id="Group_14189" data-name="Group 14189">
          <path id="Path_23122" data-name="Path 23122" d="M283.269,358.428h-1.558a.955.955,0,0,0-.954.954v1.557a.955.955,0,0,0,.954.954h1.558a.955.955,0,0,0,.954-.954v-1.557A.955.955,0,0,0,283.269,358.428Zm.043,2.511a.043.043,0,0,1-.043.043h-1.558a.043.043,0,0,1-.043-.043v-1.557a.043.043,0,0,1,.043-.043h1.558a.043.043,0,0,1,.043.043Z" transform="translate(-280.757 -358.428)" fill="#2065ae"/>
        </g>
      </g>
      <g id="Group_14192" data-name="Group 14192" transform="translate(25.725 17.594)">
        <g id="Group_14191" data-name="Group 14191">
          <path id="Path_23123" data-name="Path 23123" d="M419.567,291.068H418.01a.955.955,0,0,0-.954.954v1.557a.955.955,0,0,0,.954.954h1.557a.955.955,0,0,0,.954-.954v-1.557A.955.955,0,0,0,419.567,291.068Zm.043,2.511a.042.042,0,0,1-.043.043H418.01a.043.043,0,0,1-.043-.043c.019-1.541-.04-1.6.043-1.6h1.557a.042.042,0,0,1,.043.043Z" transform="translate(-417.056 -291.068)" fill="#2065ae"/>
        </g>
      </g>
      <g id="Group_14194" data-name="Group 14194" transform="translate(17.487 17.594)">
        <g id="Group_14193" data-name="Group 14193">
          <path id="Path_23124" data-name="Path 23124" d="M283.269,291.068h-1.558a.955.955,0,0,0-.954.954v1.557a.955.955,0,0,0,.954.954h1.558a.955.955,0,0,0,.954-.954v-1.557A.955.955,0,0,0,283.269,291.068Zm.043,2.511a.043.043,0,0,1-.043.043h-1.558a.043.043,0,0,1-.043-.043v-1.557a.043.043,0,0,1,.043-.043h1.558a.043.043,0,0,1,.043.043Z" transform="translate(-280.757 -291.068)" fill="#2065ae"/>
        </g>
      </g>
      <g id="Group_14196" data-name="Group 14196" transform="translate(17.485 25.538)">
        <g id="Group_14195" data-name="Group 14195">
          <path id="Path_23125" data-name="Path 23125" d="M283.957,422.813a.954.954,0,0,0-.714-.321h-1.558a.951.951,0,0,0-.713.321,1.3,1.3,0,0,0-.241.972V425a.955.955,0,0,0,.954.954h1.558A.955.955,0,0,0,284.2,425v-1.217A1.315,1.315,0,0,0,283.957,422.813Zm-.714,2.232c-1.539-.019-1.6.039-1.6-.043,0-1.649-.018-1.6.043-1.6h1.558c.075,0,.029.1.043.382A6.481,6.481,0,0,1,283.243,425.045Z" transform="translate(-280.73 -422.491)" fill="#2065ae"/>
        </g>
      </g>
      <g id="Group_14198" data-name="Group 14198" transform="translate(25.725 21.666)">
        <g id="Group_14197" data-name="Group 14197">
          <path id="Path_23126" data-name="Path 23126" d="M419.324,358.428h-1.073a1.2,1.2,0,0,0-1.2,1.2v4.836a1.307,1.307,0,0,0,1.305,1.306h.854a1.307,1.307,0,0,0,1.305-1.306v-4.836A1.2,1.2,0,0,0,419.324,358.428Zm-.109,6.426h-.854a.4.4,0,0,1-.394-.394v-4.836a.285.285,0,0,1,.284-.284h1.073a.285.285,0,0,1,.284.284v4.836h0A.394.394,0,0,1,419.215,364.854Z" transform="translate(-417.055 -358.428)" fill="#2065ae"/>
        </g>
      </g>
      <g id="Group_14200" data-name="Group 14200" transform="translate(10.351 10.112)">
        <g id="Group_14199" data-name="Group 14199">
          <path id="Path_23127" data-name="Path 23127" d="M164.638,170.415c-.556-.2-.957-.352-.957-.867,0-.469.312-.707.926-.707.652,0,.828.287,1.058.287a.438.438,0,0,0,.388-.449c0-.38-.619-.568-1.173-.618v-.342a.432.432,0,0,0-.864,0v.4a1.413,1.413,0,0,0-1.173,1.477c0,1.061.781,1.354,1.409,1.59s1.1.413,1.1,1.115c0,.579-.322.873-.956.873-.929,0-.938-.627-1.292-.627a.456.456,0,0,0-.4.449c0,.359.535.831,1.309.954v.331a.432.432,0,1,0,.864,0v-.34a1.56,1.56,0,0,0,1.309-1.685C166.189,170.986,165.329,170.669,164.638,170.415Z" transform="translate(-162.707 -167.288)"/>
        </g>
      </g>
      <g id="Group_14202" data-name="Group 14202" transform="translate(21.58 25.538)">
        <g id="Group_14201" data-name="Group 14201">
          <path id="Path_23128" data-name="Path 23128" d="M351.648,422.758a.95.95,0,0,0-.661-.267H349.43a.953.953,0,0,0-.714.321,1.309,1.309,0,0,0-.24.972V425a.955.955,0,0,0,.954.954h1.558a.955.955,0,0,0,.953-.954v-1.558A.951.951,0,0,0,351.648,422.758Zm-.661,2.286c-1.539-.019-1.6.039-1.6-.043v-1.558a.043.043,0,0,1,.043-.042h1.558a.042.042,0,0,1,.042.042C351.011,424.987,351.068,425.045,350.987,425.045Z" transform="translate(-348.474 -422.491)" fill="#2065ae"/>
        </g>
      </g>
      <g id="Group_14204" data-name="Group 14204" transform="translate(21.581 17.594)">
        <g id="Group_14203" data-name="Group 14203">
          <path id="Path_23129" data-name="Path 23129" d="M351.011,291.068h-1.558a.955.955,0,0,0-.954.954v1.557a.955.955,0,0,0,.954.954h1.558a.939.939,0,0,0,.347-.066.955.955,0,0,0,.607-.888v-1.557A.955.955,0,0,0,351.011,291.068Zm0,2.554h-1.558a.043.043,0,0,1-.043-.043v-1.557c0-.082.057-.024,1.6-.043a.042.042,0,0,1,.042.043v1.557h0A.042.042,0,0,1,351.011,293.622Z" transform="translate(-348.499 -291.068)" fill="#2065ae"/>
        </g>
      </g>
      <g id="Group_14206" data-name="Group 14206" transform="translate(21.581 21.666)">
        <g id="Group_14205" data-name="Group 14205">
          <path id="Path_23130" data-name="Path 23130" d="M351.358,358.494a.94.94,0,0,0-.347-.066h-1.558a.955.955,0,0,0-.954.954v1.557a.955.955,0,0,0,.954.954h1.558a.955.955,0,0,0,.953-.954v-1.557A.955.955,0,0,0,351.358,358.494Zm-.305,2.445a.042.042,0,0,1-.042.043h-1.558a.043.043,0,0,1-.043-.043v-1.557a.043.043,0,0,1,.043-.043h1.558a.042.042,0,0,1,.042.043Z" transform="translate(-348.499 -358.428)" fill="#2065ae"/>
        </g>
      </g>
      <g id="Group_14208" data-name="Group 14208" transform="translate(19.862 6.228)">
        <g id="Group_14207" data-name="Group 14207">
          <path id="Path_23131" data-name="Path 23131" d="M321.648,103.041H320.5a.456.456,0,0,0,0,.912h1.145a.456.456,0,0,0,0-.912Z" transform="translate(-320.047 -103.041)"/>
        </g>
      </g>
      <g id="Group_14210" data-name="Group 14210" transform="translate(9.956 6.228)">
        <g id="Group_14209" data-name="Group 14209">
          <path id="Path_23132" data-name="Path 23132" d="M164.708,103.041h-8.083a.456.456,0,1,0,0,.912h8.083a.456.456,0,1,0,0-.912Z" transform="translate(-156.17 -103.041)"/>
        </g>
      </g>
      <g id="Group_14212" data-name="Group 14212" transform="translate(9.956 8.491)">
        <g id="Group_14211" data-name="Group 14211">
          <path id="Path_23133" data-name="Path 23133" d="M158.075,140.472h-1.449a.456.456,0,1,0,0,.912h1.449a.456.456,0,1,0,0-.912Z" transform="translate(-156.17 -140.472)"/>
        </g>
      </g>
      <g id="Group_14214" data-name="Group 14214" transform="translate(13.228 8.491)">
        <g id="Group_14213" data-name="Group 14213">
          <path id="Path_23134" data-name="Path 23134" d="M218.534,140.472h-7.779a.456.456,0,1,0,0,.912h7.779a.456.456,0,1,0,0-.912Z" transform="translate(-210.299 -140.472)"/>
        </g>
      </g>
      <g id="Group_14216" data-name="Group 14216" transform="translate(5.101 24.139)">
        <g id="Group_14215" data-name="Group 14215">
          <path id="Path_23135" data-name="Path 23135" d="M76.851,400.907c0-.115.042-.147.082-.169a.783.783,0,0,1,.661.045.521.521,0,0,0,.247.075c.45,0,.805-.835-.269-1.02v-.029a.462.462,0,0,0-.924,0v.088a1.036,1.036,0,0,0-.7,1.038c0,.777.565.99.977,1.145.393.148.529.212.529.48,0,.167-.045.322-.372.322-.476,0-.419-.377-.776-.377a.476.476,0,0,0-.44.472c0,.316.328.615.786.737v.035a.462.462,0,0,0,.924,0V403.7a1.142,1.142,0,0,0,.786-1.17C78.357,401.147,76.851,401.355,76.851,400.907Z" transform="translate(-75.861 -399.347)"/>
        </g>
      </g>
    </g>
  </g>
</svg>
