<svg xmlns="http://www.w3.org/2000/svg" xmlns:xlink="http://www.w3.org/1999/xlink" width="92" height="92" viewBox="0 0 92 92">
  <defs>
    <filter id="Ellipse_784" x="0" y="0" width="92" height="92" filterUnits="userSpaceOnUse">
      <feOffset dy="3" input="SourceAlpha"/>
      <feGaussianBlur stdDeviation="3" result="blur"/>
      <feFlood flood-opacity="0.161"/>
      <feComposite operator="in" in2="blur"/>
      <feComposite in="SourceGraphic"/>
    </filter>
  </defs>
  <g id="Human_Resources" data-name="Human Resources" transform="translate(-277 -920)">
    <g transform="matrix(1, 0, 0, 1, 277, 920)" filter="url(#Ellipse_784)">
      <circle id="Ellipse_784-2" data-name="Ellipse 784" cx="37" cy="37" r="37" transform="translate(9 6)" fill="#fff"/>
    </g>
    <g id="select_1_" data-name="select (1)" transform="translate(306.903 946.903)">
      <path id="Path_23115" data-name="Path 23115" d="M6.948,42.421V36H5.974v6.421a1.461,1.461,0,1,0,.974,0Zm-.487,1.858a.487.487,0,1,1,.487-.487A.487.487,0,0,1,6.461,44.279Z" transform="translate(-2.052 -17.955)" fill="#2065ae"/>
      <path id="Path_23116" data-name="Path 23116" d="M12.461,36a1.457,1.457,0,0,0-.487,2.832v6.421h.974V38.832A1.457,1.457,0,0,0,12.461,36Zm0,1.948a.487.487,0,1,1,.487-.487A.487.487,0,0,1,12.461,37.948Z" transform="translate(-5.13 -17.955)" fill="#2065ae"/>
      <path id="Path_23117" data-name="Path 23117" d="M50.948,42.421V36h-.974v6.421a1.461,1.461,0,1,0,.974,0Zm-.487,1.858a.487.487,0,1,1,.487-.487A.487.487,0,0,1,50.461,44.279Z" transform="translate(-24.624 -17.955)" fill="#2065ae"/>
      <path id="Path_23118" data-name="Path 23118" d="M56.461,36a1.457,1.457,0,0,0-.487,2.832v6.421h.974V38.832A1.457,1.457,0,0,0,56.461,36Zm0,1.948a.487.487,0,1,1,.487-.487A.487.487,0,0,1,56.461,37.948Z" transform="translate(-27.702 -17.955)" fill="#2065ae"/>
      <path id="Path_23119" data-name="Path 23119" d="M21.941,16.584a1.453,1.453,0,0,0-.543.107,1.448,1.448,0,0,0-2.379-.7,1.416,1.416,0,0,0-1.461-.29V11.509a5.375,5.375,0,0,0,3.833-4.363L23.45,8.279a4.781,4.781,0,1,0,.99-.568l-3-1.65a5.35,5.35,0,0,0-10.684,0l-3,1.65a4.925,4.925,0,1,0,.989.567L10.8,7.145a5.372,5.372,0,0,0,3.833,4.364v8.977a1.461,1.461,0,0,1-.149.642l-.409-2.042A3.148,3.148,0,0,0,11,16.563a1.234,1.234,0,0,0-1.027,1.919l.5.752a2.173,2.173,0,0,1,.347.932l.337,2.695a3.308,3.308,0,0,0,.408,1.24l1.609,3.309v.862H12.2v2.922H22.915V28.272h-.974V27.46l.779-1.039a3.427,3.427,0,0,0,.682-2.045V18.045a1.463,1.463,0,0,0-1.461-1.461Zm4.383-.487a3.871,3.871,0,0,1-2.334-.784,2.921,2.921,0,0,1,4.667,0A3.871,3.871,0,0,1,26.324,16.1Zm-1.461-4.383a1.461,1.461,0,1,1,1.461,1.461A1.463,1.463,0,0,1,24.863,11.714Zm1.461-3.409a3.892,3.892,0,0,1,3.035,6.333,3.894,3.894,0,0,0-1.427-1.109,2.435,2.435,0,1,0-3.215,0,3.9,3.9,0,0,0-1.427,1.109,3.892,3.892,0,0,1,3.035-6.333ZM5.87,16.1a3.871,3.871,0,0,1-2.334-.784,2.921,2.921,0,0,1,4.667,0A3.871,3.871,0,0,1,5.87,16.1ZM4.409,11.714A1.461,1.461,0,1,1,5.87,13.175,1.463,1.463,0,0,1,4.409,11.714Zm5.357.487a3.874,3.874,0,0,1-.861,2.437,3.894,3.894,0,0,0-1.427-1.109,2.435,2.435,0,1,0-3.215,0,3.9,3.9,0,0,0-1.427,1.109A3.894,3.894,0,1,1,9.766,12.2Zm1.948-5.844A4.383,4.383,0,1,1,19.583,9a3.879,3.879,0,0,0-1.872-1.81,2.435,2.435,0,1,0-3.228,0A3.878,3.878,0,0,0,12.611,9a4.372,4.372,0,0,1-.9-2.646Zm5.844-.974A1.461,1.461,0,1,1,16.1,3.922,1.463,1.463,0,0,1,17.558,5.383ZM13.351,9.767a2.909,2.909,0,0,1,5.491,0,4.345,4.345,0,0,1-1.46.781,1.448,1.448,0,0,0-2.571,0A4.349,4.349,0,0,1,13.351,9.767Zm8.59,20.453H13.175v-.974h8.766Zm.487-5.844a2.449,2.449,0,0,1-.487,1.461l-.974,1.3v1.136H14.149V27.186l-1.722-3.539a2.4,2.4,0,0,1-.3-.905l-.337-2.7a3.146,3.146,0,0,0-.5-1.351l-.5-.752A.261.261,0,0,1,11,17.538a2.171,2.171,0,0,1,2.123,1.74l.626,3.13h1.187l.416-.832a2.448,2.448,0,0,0,.257-1.088v-9.26a.487.487,0,0,1,.974,0v7.792h.974V17.071a.487.487,0,1,1,.974,0v1.948h.974V17.071a.487.487,0,1,1,.974,0v1.948h.974v-.974a.487.487,0,1,1,.974,0Z"/>
    </g>
  </g>
</svg>
