<svg xmlns="http://www.w3.org/2000/svg" xmlns:xlink="http://www.w3.org/1999/xlink" width="92" height="92" viewBox="0 0 92 92">
  <defs>
    <filter id="Ellipse_783" x="0" y="0" width="92" height="92" filterUnits="userSpaceOnUse">
      <feOffset dy="3" input="SourceAlpha"/>
      <feGaussianBlur stdDeviation="3" result="blur"/>
      <feFlood flood-opacity="0.161"/>
      <feComposite operator="in" in2="blur"/>
      <feComposite in="SourceGraphic"/>
    </filter>
  </defs>
  <g id="Sales_and_Distribution" data-name="Sales and Distribution" transform="translate(-707 -626)">
    <g transform="matrix(1, 0, 0, 1, 707, 626)" filter="url(#Ellipse_783)">
      <circle id="Ellipse_783-2" data-name="Ellipse 783" cx="37" cy="37" r="37" transform="translate(9 6)" fill="#fff"/>
    </g>
    <g id="Shopping_Bag-Hands-Bag-Purchase-Buy" data-name="Shopping Bag-Hands-Bag-Purchase-Buy" transform="translate(732.445 650.563)">
      <path id="Path_23111" data-name="Path 23111" d="M32.585,7.472H30.4V5.83a3.83,3.83,0,1,0-7.661,0V7.472H20.547A.547.547,0,0,0,20,8.019V20.057A1.646,1.646,0,0,0,21.642,21.7h7.113V20.6H21.642a.547.547,0,0,1-.547-.547V19.51h7.661V18.415H21.094V8.566h1.642v1.642H23.83V8.566H29.3v1.642H30.4V8.566h1.642v1.642h1.094V8.019A.547.547,0,0,0,32.585,7.472Zm-3.283,0H23.83V5.83a2.736,2.736,0,1,1,5.472,0Z" transform="translate(-8.368)" fill="#2065ae"/>
      <path id="Path_23112" data-name="Path 23112" d="M48.4,19H38.547a.547.547,0,0,0-.547.547v8.208A1.646,1.646,0,0,0,39.642,29.4H47.3a1.646,1.646,0,0,0,1.642-1.642V19.547A.547.547,0,0,0,48.4,19Zm-.547,8.755a.547.547,0,0,1-.547.547H39.642a.547.547,0,0,1-.547-.547v-.547h8.755Zm0-1.642H39.094V20.094h8.755Z" transform="translate(-16.518 -7.698)"/>
      <path id="Path_23113" data-name="Path 23113" d="M45.736,26.83a2.739,2.739,0,0,0,2.736-2.736V23H47.377v1.094a1.642,1.642,0,0,1-3.283,0V23H43v1.094a2.739,2.739,0,0,0,2.736,2.736Z" transform="translate(-18.782 -9.509)"/>
      <path id="Path_23114" data-name="Path 23114" d="M34.8,42.682a2.248,2.248,0,0,0-2.832-1.128l-4.886,1.778a2.189,2.189,0,0,0-1.737-1.619l-6.6-1.164a8.218,8.218,0,0,0-4.232.37l-.85.312a9.257,9.257,0,0,0-2.243,1.192l-.121-.332a.547.547,0,0,0-.7-.328L4.421,44.007a.547.547,0,0,0-.328.7l-2.572.936L1.9,46.672l2.572-.936L6.7,51.869l1.028-.374L5.311,44.849l5.144-1.871,2.808,7.715-1.313.479.374,1.028,1.826-.668a.547.547,0,0,0,.328-.7l-.187-.514,1.259-.459a5.988,5.988,0,0,1,2.475-.349l2.6.18a7.027,7.027,0,0,0,2.925-.412l10-3.64A2.189,2.189,0,0,0,34.8,42.681ZM33.79,44.041a1.086,1.086,0,0,1-.617.566l-10,3.641A5.96,5.96,0,0,1,20.7,48.6l-2.6-.18a7.091,7.091,0,0,0-2.924.412l-1.262.459-2.109-5.8a8.165,8.165,0,0,1,2.227-1.234l.849-.309a7.122,7.122,0,0,1,3.669-.321l6.6,1.164a1.094,1.094,0,1,1-.38,2.155L18.84,43.9l-.19,1.078,5.928,1.045a2.179,2.179,0,0,0,2.466-1.516l5.292-1.927a1.166,1.166,0,0,1,1.459.547A1.1,1.1,0,0,1,33.79,44.041Z" transform="translate(0 -17.399)"/>
    </g>
  </g>
</svg>
