<svg xmlns="http://www.w3.org/2000/svg" width="28" height="28" viewBox="0 0 28 28">
  <g id="email" transform="translate(-345 -4032)">
    <circle id="Ellipse_773" data-name="Ellipse 773" cx="14" cy="14" r="14" transform="translate(345 4032)" fill="#154171"/>
    <g id="email_10_" data-name="email (10)" transform="translate(350 4037)">
      <circle id="Ellipse_779" data-name="Ellipse 779" cx="9" cy="9" r="9" fill="#5f98d1"/>
      <path id="Path_23021" data-name="Path 23021" d="M99.734,147.466H88.475l4.079,4.247,1.177,1.192a1.628,1.628,0,0,1-.964-.469c-.149-.122-.436-.452-.873-.9l-3.677-3.755v6.99l.291.291-.033.034,5.172,5.172q.233.012.468.012a9,9,0,0,0,9-9q0-.224-.011-.445Z" transform="translate(-85.116 -142.282)" fill="#3a6da1"/>
      <g id="Group_14182" data-name="Group 14182" transform="translate(3.101 5.184)">
        <path id="Path_23022" data-name="Path 23022" d="M88.217,156.484v6.99l3.409-3.509Z" transform="translate(-88.217 -156.167)" fill="#fff"/>
        <path id="Path_23023" data-name="Path 23023" d="M330.7,156.484v6.99l-3.392-3.495Z" transform="translate(-318.901 -156.167)" fill="#fff"/>
        <path id="Path_23024" data-name="Path 23024" d="M95.558,147.466h11.259l-4.425,4.608a1.67,1.67,0,0,1-2.409,0Z" transform="translate(-95.3 -147.466)" fill="#fff"/>
        <path id="Path_23025" data-name="Path 23025" d="M102.647,264.048a2.024,2.024,0,0,1-2.92,0l-.751-.782-3.419,3.56h11.259l-3.419-3.56Z" transform="translate(-95.3 -259.196)" fill="#fff"/>
      </g>
    </g>
  </g>
</svg>
