<svg xmlns="http://www.w3.org/2000/svg" width="28" height="28" viewBox="0 0 28 28">
  <g id="tweeter" transform="translate(-304 -4032)">
    <circle id="Ellipse_771" data-name="Ellipse 771" cx="14" cy="14" r="14" transform="translate(304 4032)" fill="#154171"/>
    <g id="Layer_2" data-name="Layer 2" transform="translate(309 4037)">
      <g id="Color">
        <g id="_04.Twitter" data-name="04.Twitter">
          <circle id="Background" cx="9" cy="9" r="9" fill="#03a9f4"/>
          <path id="Icon" d="M38.643,37.132a5.053,5.053,0,0,1-1.4.384,2.413,2.413,0,0,0,1.068-1.343,4.851,4.851,0,0,1-1.54.588,2.428,2.428,0,0,0-4.2,1.66,2.511,2.511,0,0,0,.057.553,6.877,6.877,0,0,1-5.006-2.54,2.43,2.43,0,0,0,.747,3.249,2.4,2.4,0,0,1-1.1-.3v.026A2.44,2.44,0,0,0,29.216,41.8a2.422,2.422,0,0,1-.636.079,2.165,2.165,0,0,1-.461-.041,2.453,2.453,0,0,0,2.27,1.692,4.884,4.884,0,0,1-3.008,1.036,4.385,4.385,0,0,1-.581-.034,6.916,6.916,0,0,0,10.643-5.821c0-.107,0-.211-.008-.314A4.832,4.832,0,0,0,38.643,37.132Z" transform="translate(-23.576 -31.662)" fill="#fff"/>
        </g>
      </g>
    </g>
  </g>
</svg>
