<svg xmlns="http://www.w3.org/2000/svg" width="28" height="28" viewBox="0 0 28 28">
  <g id="whatsapp" transform="translate(-386 -4032)">
    <circle id="Ellipse_772" data-name="Ellipse 772" cx="14" cy="14" r="14" transform="translate(386 4032)" fill="#154171"/>
    <g id="Layer_2" data-name="Layer 2" transform="translate(391 4037)">
      <g id="_08.whatsapp" data-name="08.whatsapp">
        <circle id="background" cx="9" cy="9" r="9" fill="#2aa81a"/>
        <g id="icon" transform="translate(4.535 4.5)">
          <path id="Path_23026" data-name="Path 23026" d="M45.938,39.322a4.464,4.464,0,0,0-7.153,5.166l-.474,2.3a.168.168,0,0,0,.027.134.172.172,0,0,0,.182.071l2.25-.534a4.464,4.464,0,0,0,5.163-7.136Zm-.7,5.61a3.5,3.5,0,0,1-4.026.66l-.315-.156-1.382.327v-.018l.291-1.394-.154-.3a3.5,3.5,0,0,1,5.586-4.058l.015.021a3.5,3.5,0,0,1-.018,4.924Z" transform="translate(-38.299 -37.997)" fill="#fff"/>
          <path id="Path_23027" data-name="Path 23027" d="M61.587,61.182a1.459,1.459,0,0,1-.773.674,2.947,2.947,0,0,1-2.622-1.043l-.014-.013a2.855,2.855,0,0,1-1.184-2.286,1.448,1.448,0,0,1,.563-.859.322.322,0,0,1,.5.118l.364.822a.32.32,0,0,1-.039.327l-.185.237a.314.314,0,0,0-.025.349,3.434,3.434,0,0,0,.624.694,3.691,3.691,0,0,0,.864.619A.314.314,0,0,0,60,60.75l.212-.216a.321.321,0,0,1,.323-.09l.864.247a.324.324,0,0,1,.182.49Z" transform="translate(-54.773 -55.26)" fill="#fff"/>
        </g>
      </g>
    </g>
  </g>
</svg>
