<svg xmlns="http://www.w3.org/2000/svg" width="71.664" height="74.816" viewBox="0 0 71.664 74.816">
  <g id="Get_a_Quote" data-name="Get a Quote" transform="translate(-1268.824 -583.64)">
    <g id="conversation-mark" transform="translate(1267.123 583.64)">
      <path id="Path_23136" data-name="Path 23136" d="M37.533,0C17.745,0,1.7,14.681,1.7,32.788A31.416,31.416,0,0,0,12.9,56.551L11.7,74.816l17.02-10.282a38.98,38.98,0,0,0,8.816,1.04c19.791,0,35.832-14.678,35.832-32.788S57.324,0,37.533,0ZM34.07,30.8q0,5.05-2.3,7.972T23.9,43.926l-2.8-4.857a13.822,13.822,0,0,0,4.742-2.932A5.685,5.685,0,0,0,27.3,32.68h-6.2V21.651H34.07V30.8Zm19.9,0q0,5.05-2.3,7.972T43.8,43.926L41,39.068a13.872,13.872,0,0,0,4.745-2.932,5.685,5.685,0,0,0,1.463-3.456H41V21.651H53.977L53.971,30.8Z" transform="translate(0)" fill="#3ebd32"/>
    </g>
    <g id="conversation-mark-2" data-name="conversation-mark" transform="translate(1271.299 588)">
      <path id="Path_23136-2" data-name="Path 23136" d="M33.357,0C15.875,0,1.7,12.97,1.7,28.967a27.755,27.755,0,0,0,9.89,20.993L10.532,66.1l15.036-9.084a34.437,34.437,0,0,0,7.788.919c17.485,0,31.656-12.967,31.656-28.967S50.841,0,33.357,0ZM30.3,27.206a11.105,11.105,0,0,1-2.029,7.043q-2.029,2.58-6.957,4.558l-2.477-4.291a12.211,12.211,0,0,0,4.189-2.591,5.023,5.023,0,0,0,1.292-3.054H18.834V19.127H30.3v8.079Zm17.582,0a11.105,11.105,0,0,1-2.029,7.043q-2.029,2.587-6.957,4.558l-2.475-4.291a12.255,12.255,0,0,0,4.192-2.591A5.023,5.023,0,0,0,41.9,28.871H36.421V19.127H47.884l-.005,8.079Z" fill="#fff"/>
    </g>
  </g>
</svg>
