<svg xmlns="http://www.w3.org/2000/svg" width="1365.49" height="170.324" viewBox="0 0 1365.49 170.324">
  <g id="Patch_5" data-name="Patch 5" transform="translate(4540.64 -851.161)">
    <path id="Patch_1" data-name="Patch 1" d="M0,707.912H81.278s65.88-5.088,106.586,28.655,55.477,51.455,98.943,14.786,46.969-3.5,42.437,7.416,9.167,22.454,28.119,5.356,27.347-48.874,57.835-44.136,27.4,51.089,21.424,57.063-3.914,58.608,51.5,19.879c.464-.052,13.236-14.884,19-24.154s37.9-47.793,83.431-8.652,45.269,51.552,89.56,58.968,90.641-63.655,98.675-63.037c-.721-.36,51.6-41.355,92.186-6.129s52.943,1.236,52.943,1.236a98.712,98.712,0,0,0-2.266-16.892c-1.854-7.21,7.519-32.136,33.784-6.386s41.046,34.917,79.157-2.369,150.331-22.2,150.331-22.2H1365.49v-7.4H0Z" transform="translate(-3175.149 1721.404) rotate(180)" fill="#fff"/>
    <path id="Union_3" data-name="Union 3" d="M2.881,4.349C-1.2,9.214-.91,16.18,3.532,19.907s11.354,2.805,15.436-2.06,3.791-11.831-.652-15.558A9.883,9.883,0,0,0,11.909,0,11.889,11.889,0,0,0,2.881,4.349ZM58.418,46.007c-1.992,3.314-1.3,7.385,1.537,9.091s6.757.4,8.749-2.91,1.3-7.384-1.538-9.091a5.3,5.3,0,0,0-2.75-.75A7.206,7.206,0,0,0,58.418,46.007ZM6.861,68.1c0,11.875,8.73,21.5,19.5,21.5s19.5-9.626,19.5-21.5-8.731-21.5-19.5-21.5S6.861,56.224,6.861,68.1Z" transform="translate(-3579.14 940.76) rotate(180)" fill="#fff"/>
  </g>
</svg>
